<svg xmlns="http://www.w3.org/2000/svg" version="1.1" xmlns:xlink="http://www.w3.org/1999/xlink" width="512" height="512" x="0" y="0" viewBox="0 0 512 512" style="enable-background:new 0 0 512 512" xml:space="preserve" class=""><g><linearGradient id="a" x1="67.152" x2="461.839" y1="475.503" y2="80.816" gradientUnits="userSpaceOnUse"><stop stop-opacity="1" stop-color="#9345ff" offset="0"></stop><stop stop-opacity="1" stop-color="#97e0ff" offset="0"></stop><stop stop-opacity="1" stop-color="#1075ff" offset="1"></stop></linearGradient><path fill="url(#a)" d="M411.769 43.234c0-5.442-1.159-10.773-3.235-15.723l61.08 61.08c-4.95-2.076-10.281-3.235-15.723-3.235h-42.122zm70.758 391.426v-85.954L432.9 434.66zm-30.001-152.692L364.375 434.66H245.909l-.977-1.456 9.283-22.38 14.451-2.849a7.005 7.005 0 0 0 5.639-6.873v-49.598a6.991 6.991 0 0 0-5.639-6.868l-14.451-2.854-9.283-22.38 8.213-12.238a6.996 6.996 0 0 0-.872-8.849l-35.08-35.081a6.986 6.986 0 0 0-8.84-.862l-12.248 8.213-22.379-9.283-2.844-14.451a7.005 7.005 0 0 0-6.869-5.649h-10.486V14.598h216.468c14.791 0 27.774 14.195 27.774 28.635v49.202c0 3.812 3.109 6.92 6.92 6.92h49.202c14.441 0 28.635 12.984 28.636 27.775v140.324c-11.669-1.678-23.769 3.718-30.001 14.513zM212.141 120.592a4.93 4.93 0 0 0 4.92 4.92h91.254a4.93 4.93 0 0 0 4.92-4.92v-39.72a4.93 4.93 0 0 0-4.92-4.92h-91.254a4.93 4.93 0 0 0-4.92 4.92zm164.771 252.714a7 7 0 0 0-7-7h-66.181a7 7 0 1 0 0 14h66.181a7 7 0 0 0 7-7zm23.25-49.559a7 7 0 0 0-7-7H286.331a7 7 0 1 0 0 14h106.831a7 7 0 0 0 7-7zm30.75-49.559a7 7 0 0 0-7-7H273.941a7 7 0 1 0 0 14h149.971a7 7 0 0 0 7-7zm0-49.559a7 7 0 0 0-7-7H212.141a7 7 0 1 0 0 14h211.771a7 7 0 0 0 7-7zm0-49.559a7 7 0 0 0-7-7H212.141a7 7 0 1 0 0 14h211.771a7 7 0 0 0 7-7zM247.823 397.815a6.995 6.995 0 0 0-5.109 4.188l-12.151 29.301a6.969 6.969 0 0 0 .651 6.579l7.09 10.58-26.939 26.939-10.57-7.09a7.018 7.018 0 0 0-6.589-.66l-29.301 12.161a7.021 7.021 0 0 0-4.189 5.109l-2.463 12.479h-38.088l-2.463-12.479a7.019 7.019 0 0 0-4.189-5.109l-29.301-12.161a7.02 7.02 0 0 0-6.589.66l-10.57 7.09-26.939-26.939 7.09-10.58a6.966 6.966 0 0 0 .65-6.579l-12.151-29.301a6.994 6.994 0 0 0-5.109-4.188l-12.479-2.463v-38.098l12.479-2.463a7.004 7.004 0 0 0 5.109-4.179l12.151-29.311a6.971 6.971 0 0 0-.65-6.579l-7.09-10.58 26.939-26.935 10.57 7.095a7.02 7.02 0 0 0 6.589.651l29.301-12.156a7.029 7.029 0 0 0 4.189-5.114l2.463-12.479h38.088l2.463 12.479a7.027 7.027 0 0 0 4.189 5.114l29.301 12.156a7.016 7.016 0 0 0 6.589-.651l10.57-7.095 26.939 26.935-7.09 10.58a6.974 6.974 0 0 0-.651 6.579l12.151 29.311a7.004 7.004 0 0 0 5.109 4.179l12.479 2.463v38.098zm-29.947-21.512c0-43.329-35.339-78.668-78.668-78.668S60.54 332.974 60.54 376.303s35.339 78.668 78.668 78.668 78.668-35.339 78.668-78.668zM97.499 324.696a7 7 0 0 0-9.898 9.898l1.988 1.988a7 7 0 0 0 9.898-9.898zm41.709 107.781a7 7 0 0 0-7 7v2.811a7 7 0 1 0 14 0v-2.811a7 7 0 0 0-7-7zm0-100.659a7 7 0 0 0-7 7v34.587l-24.455 24.455a7 7 0 0 0 9.898 9.898l26.506-26.506a6.976 6.976 0 0 0 2.05-4.949v-37.485a7 7 0 0 0-7-7zm-63.174 37.485h-2.811a7 7 0 1 0 0 14h2.811a7 7 0 1 0 0-14zm13.554 46.722-1.988 1.988a7 7 0 0 0 9.898 9.898l1.988-1.988a7 7 0 0 0-9.898-9.898zm49.619-95.896a7 7 0 0 0 7-7v-2.811a7 7 0 1 0-14 0v2.811a7 7 0 0 0 7 7zm63.174 63.174h2.811a7 7 0 1 0 0-14h-2.811a7 7 0 1 0 0 14zm-13.554 32.722a7 7 0 0 0-9.898 9.898l1.988 1.988a7 7 0 0 0 9.898-9.898zm-7.91-91.329-1.988 1.988a7 7 0 0 0 9.898 9.898l1.988-1.988a7 7 0 0 0-9.898-9.898zm312.422-31.936c-1.089-4.059-3.668-7.452-7.269-9.529-3.61-2.082-7.833-2.622-11.891-1.542-4.059 1.089-7.452 3.682-9.529 7.278l-5.664 9.812 27.15 15.677 5.661-9.805c2.082-3.61 2.632-7.833 1.543-11.891zm-53.953 39.971L380.31 435.057l27.145 15.673 59.082-102.33zm-72.395 156.75 31.166-27.951-22.548-13.019zm79.395-168.875 27.15 15.673 5.599-9.698-27.149-15.676-5.599 9.7z" opacity="1" data-original="url(#a)" class=""></path></g></svg>