<svg xmlns="http://www.w3.org/2000/svg" version="1.1" xmlns:xlink="http://www.w3.org/1999/xlink" width="512" height="512" x="0" y="0" viewBox="0 0 64 64" style="enable-background:new 0 0 512 512" xml:space="preserve" class=""><g><linearGradient id="a" x1="4" x2="60" y1="32" y2="32" gradientUnits="userSpaceOnUse"><stop stop-opacity="1" stop-color="#97e0ff" offset="0"></stop><stop stop-opacity="1" stop-color="#1075ff" offset="1"></stop></linearGradient><path fill="url(#a)" d="M54.85 5.68H9.15A5.164 5.164 0 0 0 4 10.84v31.88a5.155 5.155 0 0 0 5.15 5.15h7.14v8.44a2.01 2.01 0 0 0 2.02 2.01 1.968 1.968 0 0 0 1.52-.73l8.07-9.72h26.95A5.155 5.155 0 0 0 60 42.72V10.84a5.164 5.164 0 0 0-5.15-5.16zM46.9 30.85a3.653 3.653 0 0 1-1.31 2.2 3.443 3.443 0 0 1-1.23 3.53 3.55 3.55 0 0 1-.59 2.87 3.792 3.792 0 0 1-3.11 1.53H24.88a1.545 1.545 0 0 1-1.35.8h-4.5a1.965 1.965 0 0 1-1.97-1.96V25.97A1.974 1.974 0 0 1 19.03 24h4.51a1.554 1.554 0 0 1 1.35.81c1.037-.047 2.7.31 3.23-.89l2.03-3.95a3.056 3.056 0 0 0 .33-1.35v-4.5a2.186 2.186 0 0 1 1.08-1.67c1.77-1.03 2.93-.89 4.45.55 3.01 2.65 2.15 6.7 1.23 9.51v.02c1.89-.01 3.92-.01 5.58.01a3.982 3.982 0 0 1 4.09 4.31 3.588 3.588 0 0 1-.54 1.59 3.488 3.488 0 0 1 .53 2.41zm-2.35-1.54a1.496 1.496 0 0 1-.41 2.32 1.343 1.343 0 0 0-.55 1.68 1.476 1.476 0 0 1-.63 1.81c-1.451.98.034 2.098-.81 3.16a1.834 1.834 0 0 1-1.5.7c-.61.01-13.68.01-16.55 0a1.048 1.048 0 0 0-.69.27 1.261 1.261 0 0 0-.31.53l-4.04.04L19.03 26h4.05v8.98a1 1 0 0 0 2 0v-8.17h1.59a3.61 3.61 0 0 0 3.23-1.98c.636-1.442 2.731-4.578 2.58-6.21v-4.31a.604.604 0 0 1 .08-.13c1.01-.59 1.19-.56 2.1.3 1.842 1.435 1.754 4.532.47 8.06-.682-.089-1.375.236-1.38 1a1.003 1.003 0 0 0 1 1c1.33-.01 2.9-.02 4.44-.02 1.838.203 3.904-.545 5.27.71a1.814 1.814 0 0 1 .1 2.31 1.334 1.334 0 0 0-.01 1.77z" opacity="1" data-original="url(#a)" class=""></path></g></svg>