<svg xmlns="http://www.w3.org/2000/svg" version="1.1" xmlns:xlink="http://www.w3.org/1999/xlink" width="512" height="512" x="0" y="0" viewBox="0 0 512 512" style="enable-background:new 0 0 512 512" xml:space="preserve" class=""><g><linearGradient id="a" x1="256" x2="256" y1="501.04" y2="10.96" gradientUnits="userSpaceOnUse"><stop stop-opacity="1" stop-color="#9345ff" offset="0"></stop><stop stop-opacity="1" stop-color="#97e0ff" offset="0"></stop><stop stop-opacity="1" stop-color="#1075ff" offset="1"></stop></linearGradient><path fill="url(#a)" d="M382.181 240.072h19.718V501.04H10.9V240.072h19.717v233.27a6.999 6.999 0 0 0 3.239 5.904 7.007 7.007 0 0 0 6.72.444c24.586-11.462 122.207-10.715 162.059 14.716a7.028 7.028 0 0 0 7.529 0c39.854-25.43 137.475-26.178 162.061-14.716a7.002 7.002 0 0 0 9.957-6.348v-233.27zm-42.134 108.494c8.072-16.783 5.909-35.861-5.716-50.409l-62.408-78.103c36.823-4.919 76.092-3.403 96.259 2.306v241.213c-16.801-4.367-43.36-6.088-71.881-4.429-20.482 1.198-56.204 5.074-82.903 17.588V375.569h83.698c18.623 0 34.878-10.219 42.95-27.001zm3.855 76.207c-16.701-2.532-33.844-2.921-50.891-1.684-18.759 1.361-37.442 4.713-55.312 9.353a6.977 6.977 0 0 0 3.5 13.508c17.017-4.418 34.845-7.613 52.796-8.916 16.044-1.164 32.157-.801 47.828 1.574a6.996 6.996 0 0 0 2.078-13.836zm.054-33.923c-16.853-2.668-34.103-3.147-51.22-1.965-18.885 1.304-37.718 4.64-55.742 9.292a6.97 6.97 0 1 0 3.446 13.507c17.15-4.426 35.126-7.604 53.227-8.854 16.2-1.118 32.413-.683 48.103 1.801a6.977 6.977 0 0 0 2.187-13.781zM78.469 298.156c-11.625 14.549-13.789 33.627-5.716 50.409 8.072 16.783 24.327 27.001 42.95 27.001H199.4v101.161c-26.699-12.513-62.421-16.388-82.902-17.586-28.519-1.663-55.081.063-71.879 4.429V222.358c20.168-5.708 59.436-7.224 96.258-2.305zm96.63 134.286c-17.87-4.64-36.554-7.992-55.312-9.353-17.047-1.237-34.189-.848-50.89 1.684a6.996 6.996 0 0 0 2.078 13.836c15.671-2.375 31.783-2.739 47.827-1.574 17.951 1.302 35.78 4.497 52.797 8.916a6.977 6.977 0 0 0 3.5-13.508zM63.045 398.834a6.977 6.977 0 0 0 7.984 5.797c15.69-2.484 31.903-2.919 48.103-1.801 18.101 1.25 36.076 4.428 53.226 8.854a6.97 6.97 0 0 0 3.446-13.507c-18.024-4.651-36.857-7.988-55.742-9.292-17.117-1.181-34.367-.702-51.22 1.965a6.977 6.977 0 0 0-5.797 7.984zM147.348 49.36c10.575 0 19.2-8.625 19.2-19.2s-8.625-19.2-19.2-19.2-19.2 8.625-19.2 19.2 8.625 19.2 19.2 19.2zM97.495 93.568c7.601 0 13.8-6.199 13.8-13.8s-6.199-13.8-13.8-13.8-13.8 6.199-13.8 13.8 6.199 13.8 13.8 13.8zm-62.63-29.601h4.03v4.03a7 7 0 1 0 14 0v-4.03h4.03a7 7 0 1 0 0-14h-4.03v-4.03a7 7 0 1 0-14 0v4.03h-4.03a7 7 0 1 0 0 14zm460.553 206.35c-7.575 7.575-19.97 7.575-27.546 0l-53.027-53.027c-3.502-3.502-3.652-9.119-.453-12.803l-2.233-2.233c-5.115-5.115-12.795-6.075-19.012-2.377-13.605 8.093-29.499 12.741-46.478 12.741-50.287 0-91.052-40.765-91.052-91.052s40.766-91.051 91.052-91.051 91.052 40.765 91.052 91.052c0 16.98-4.649 32.873-12.742 46.478-3.698 6.217-2.738 13.897 2.377 19.012l2.233 2.233c3.684-3.199 9.301-3.049 12.802.453l53.028 53.027c7.575 7.576 7.575 19.97 0 27.546zm-84.34-148.751c0-35.573-28.837-64.411-64.41-64.411s-64.411 28.838-64.411 64.411 28.838 64.41 64.411 64.41 64.41-28.837 64.41-64.41zM162.635 68.34v15.891c0 3.377 2.762 6.139 6.139 6.139h75.252c3.377 0 6.139-2.763 6.139-6.139V68.34c0-3.377-2.762-6.139-6.139-6.139h-75.252c-3.377 0-6.139 2.762-6.139 6.139zm-25.963 180.155h139.456l46.898 58.693c8.154 10.205 9.643 23.332 3.981 35.104-5.662 11.771-16.846 18.803-29.909 18.803H115.702c-13.062 0-24.247-7.031-29.909-18.803s-4.174-24.899 3.981-35.104zm126.243 70.971c0 6.325 5.128 11.453 11.453 11.453s11.452-5.128 11.452-11.453-5.127-11.453-11.452-11.453-11.453 5.128-11.453 11.453zm-59.917-45.254c0 9.282 7.525 16.807 16.807 16.807s16.807-7.525 16.807-16.807-7.525-16.807-16.807-16.807-16.807 7.525-16.807 16.807zm-59.491 28.851a7 7 0 0 0 7 7h4.03v4.03a7 7 0 1 0 14 0v-4.03h4.03a7 7 0 1 0 0-14h-4.03v-4.03a7 7 0 1 0-14 0v4.03h-4.03a7 7 0 0 0-7 7zm98.934-96.727 22.5 28.159H147.858l22.5-28.159c3.782-4.733 5.608-9.941 5.608-16v-85.494h60.867v85.494c0 6.058 1.825 11.267 5.608 16zm-24.05-27.794c0-6.575-5.33-11.905-11.905-11.905s-11.905 5.33-11.905 11.905 5.33 11.905 11.905 11.905 11.905-5.33 11.905-11.905z" opacity="1" data-original="url(#a)" class=""></path></g></svg>