<svg xmlns="http://www.w3.org/2000/svg" version="1.1" xmlns:xlink="http://www.w3.org/1999/xlink" width="512" height="512" x="0" y="0" viewBox="0 0 512 512" style="enable-background:new 0 0 512 512" xml:space="preserve" class=""><g><linearGradient id="a" x1="7.005" x2="504.995" y1="256" y2="256" gradientUnits="userSpaceOnUse"><stop stop-opacity="1" stop-color="#1075ff" offset="0"></stop><stop stop-opacity="1" stop-color="#97e0ff" offset="0.008"></stop><stop stop-opacity="1" stop-color="#1075ff" offset="1"></stop></linearGradient><path fill="url(#a)" fill-rule="evenodd" d="M84.05 368.209a17.76 17.76 0 0 0 17.717 17.717h385.54A17.753 17.753 0 0 0 505 368.209v-24.378H84.05zm201.8-10.346h17.376a7 7 0 0 1 0 14h-17.377a7 7 0 1 1 0-14zm73.616 85.068V455.6H229.609v-12.669a12.727 12.727 0 0 1 12.671-12.7h12.614v-30.3h79.257v30.3h12.614a12.751 12.751 0 0 1 12.7 12.7zm-157.58-301.068a24 24 0 0 1 7.087 17.008c0 17.489-6.463 28.431-14.74 33.023a19.309 19.309 0 0 1-9.354 2.466v-.028a19.242 19.242 0 0 1-9.355-2.409v-.029c-8.277-4.592-14.74-15.534-14.74-33.023a24.052 24.052 0 0 1 41.1-17.008zm77.868 152.391 2.608 1.53-3 1.729-2.948 1.7v-6.86l2.948 1.7a1.777 1.777 0 0 0 .392.201zm-18.992-56.24 21.175-12.214a4.919 4.919 0 0 1 5.754.17 6.258 6.258 0 0 1 1.389 1.474l.029.085c.085.142.2.312.283.454a7.172 7.172 0 0 1 .85 2.409 4.99 4.99 0 0 1-2.721 5.1c-.113.057-.227.142-.34.2l-19.219 12.67a7.459 7.459 0 0 0-1.1.738l-15.336 10.119a6.125 6.125 0 0 1-1.9.6h-.028a5.534 5.534 0 0 1-1.361 0l-26.646-15.931a7 7 0 0 0-9.552 2.409 6.873 6.873 0 0 0-.993 3.884c0 13.464.171 27.609.426 42.094.214 12.39.51 24.961.834 37.559h-56.012l1.486-66.9a6.984 6.984 0 0 0-13.012-3.629l-18.821 32.6-.142.283a5.127 5.127 0 0 1-5.131 2.523 7.3 7.3 0 0 1-4.365-2.494c-1.106-1.418-1.418-3.515-.029-5.9.057-.114.142-.256.2-.4 2.749-4.791 5.584-10.772 8.645-17.263 7.03-14.8 15.307-32.315 23.046-37.871a24.832 24.832 0 0 1 9.043-3.77 77.511 77.511 0 0 1 11.48-1.474c11.423-.737 23.074-.652 34.554-.567 3.43.028 6.832.056 10.262.056a5.8 5.8 0 0 1 1.559.227 5.391 5.391 0 0 1 1.389.709l26.022 18a6.968 6.968 0 0 0 7.455.312l9.95-5.755a5.364 5.364 0 0 0 .877-.507zm226.545-134.986h-338.74a79.005 79.005 0 0 1-12.586 64.12c.907 6.945 4.762 13.124 8.986 18.737l19.62 25.974c1.07-.091 2.129-.168 3.17-.235 11.537-.794 23.641-.681 35.547-.6 3.43.029 6.86.057 10.2.057a19.509 19.509 0 0 1 5.7.822 18.893 18.893 0 0 1 5.188 2.579l22.365 15.478 3.062-1.758v-92.575a7 7 0 0 1 7-7h212.375a6.98 6.98 0 0 1 7 7v118.941a7 7 0 0 1-7 7h-195.9l-14.428 9.5-.425.255a19.486 19.486 0 0 1-7.115 2.325 18.874 18.874 0 0 1-7.455-.482 6.271 6.271 0 0 1-2.155-.992l-16.667-9.95c.056 9.638.2 19.644.368 29.849.217 12.3.517 24.968.845 37.757H505V120.745a17.754 17.754 0 0 0-17.693-17.717zM200.951 204.14a33.063 33.063 0 0 1-16.072 4.167v.028a33.307 33.307 0 0 1-16.073-4.223v.028c-12.359-6.831-22.025-22-22.025-45.269a38.1 38.1 0 0 1 76.195 0c0 23.272-9.666 38.438-22.025 45.269zm101.4 95.1a6.955 6.955 0 0 1-2.551 2.579l-26.9 15.534a6.966 6.966 0 0 1-9.524-2.551 6.786 6.786 0 0 1-.935-3.487h-.029V280.25a7.007 7.007 0 0 1 10.914-5.811l13.039 7.541a2.3 2.3 0 0 1 .34.226l13.068 7.54a6.936 6.936 0 0 1 2.573 9.497zm22.082 12.926a7 7 0 0 1-14 0v-31.55a7 7 0 1 1 14 0zm19.588 0a7 7 0 0 1-14 0v-31.55a7 7 0 0 1 14 0zm112.62-8.788H414.4v8.788a6.988 6.988 0 1 1-13.975 0v-8.788h-42.236a6.988 6.988 0 1 1 0-13.975h42.236v-8.787a6.988 6.988 0 1 1 13.975 0v8.787h42.236a6.988 6.988 0 1 1 0 13.975zM132.1 208.194l31.082 3.794a70.436 70.436 0 0 0-9.086 1.421 38.666 38.666 0 0 0-14.06 6.038c-10.686 7.682-19.814 26.958-27.552 43.257-3 6.35-5.783 12.217-8.079 16.271-.085.113-.142.227-.227.34-4.677 8.135-3.231 15.874 1.134 21.487a20.94 20.94 0 0 0 13.465 7.738c6.944.992 14.315-1.531 18.992-9.184a2.48 2.48 0 0 1 .283-.454l5.188-9.014-.9 39.94H84.05V199.151a78.405 78.405 0 0 0 15.874-4.2c8.901 7.63 20.013 11.769 32.176 13.243zm162.595 39.231-.17.142h167.667V142.628H263.823v77.5l11.112-6.407c8.022-4.649 15.789-3.118 21.4 1.3l.17.142 21.09-12.189a6.991 6.991 0 1 1 7 12.1l-20.777 11.99c.113.454.169.879.254 1.333 1.028 7.009-1.527 14.379-9.379 19.028zm143.49-28.772h-87.9a7 7 0 1 1 0-14h87.9a7 7 0 0 1 0 14zm-150.322-65h150.32a7 7 0 0 1 0 14H287.861a7 7 0 0 1 0-14zm0 39.487a6.988 6.988 0 1 1 0-13.975h150.32a6.988 6.988 0 0 1 0 13.975zM78.636 112.156l15.761 9.1-15.732 9.071-15.733 9.1v-36.34zM133.8 194.3c-7.115-9.411-12.5-19.474-11.99-31.72a64.773 64.773 0 1 0-18.567 15.421c6.489 8.933 16.439 14.574 30.557 16.299zm-74.383-36.761a6.984 6.984 0 0 1-9.524-2.552 7.067 7.067 0 0 1-.936-3.486h-.028V91.009a7.021 7.021 0 0 1 11.055-5.726l25.654 14.826v-.029l26.192 15.137a6.991 6.991 0 0 1-.4 12.3z" opacity="1" data-original="url(#a)" class=""></path></g></svg>